<svg width="23" height="22" fill="none" xmlns="http://www.w3.org/2000/svg"><path d="M20.78.779L2.1.884A1.16 1.16 0 00.947 2.05l.105 18.682c.004.64.526 1.155 1.166 1.152l10.058-.057-.046-8.132-2.737.015-.018-3.169 2.737-.015-.013-2.338c-.015-2.712 1.633-4.198 4.053-4.212 1.16-.006 2.156.075 2.447.111l.015 2.835-1.678.01c-1.316.008-1.567.635-1.562 1.552l.012 2.024 3.138-.018-.39 3.172-2.73.015.045 8.131 5.352-.03a1.159 1.159 0 001.15-1.165l-.104-18.681A1.16 1.16 0 0020.78.779z" fill="#ABBCD5"/></svg>