<svg width="23" height="23" fill="none" xmlns="http://www.w3.org/2000/svg"><path d="M11.452 2.949c2.803-.016 3.136-.007 4.244.037 2.846.114 4.183 1.456 4.328 4.28.057 1.107.069 1.44.084 4.243.016 2.804.008 3.136-.036 4.243-.114 2.822-1.432 4.182-4.28 4.328-1.107.057-1.438.07-4.243.085-2.804.016-3.136.007-4.243-.037-2.854-.114-4.183-1.463-4.329-4.28-.057-1.107-.069-1.439-.085-4.243-.016-2.804-.006-3.135.038-4.243.114-2.825 1.432-4.183 4.28-4.329 1.107-.056 1.438-.068 4.242-.084zm-.01-1.893c-2.852.016-3.21.03-4.329.088-3.812.196-5.92 2.324-6.073 6.142-.045 1.12-.056 1.478-.04 4.33.017 2.85.03 3.209.088 4.328.196 3.813 2.324 5.92 6.142 6.073 1.12.045 1.478.055 4.33.039 2.851-.016 3.209-.03 4.329-.087 3.808-.197 5.92-2.324 6.072-6.142.045-1.12.055-1.478.04-4.33-.017-2.851-.031-3.208-.088-4.328-.193-3.809-2.323-5.92-6.141-6.073-1.121-.045-1.48-.056-4.33-.04zm.028 5.109a5.392 5.392 0 10.061 10.783 5.392 5.392 0 00-.061-10.783zm.05 8.891a3.5 3.5 0 11-.04-7 3.5 3.5 0 01.04 7zM17.067 4.66a1.26 1.26 0 10.013 2.521 1.26 1.26 0 00-.013-2.52z" fill="#ABBCD5"/></svg>