<svg width="111" height="43" fill="none" xmlns="http://www.w3.org/2000/svg"><path d="M41.508 32.234c1.394 0 2.636-.445 3.644-1.91L45.34 32h2.355v-7.102c0-2.859-1.875-4.851-5.062-4.851-2.309 0-3.797 1.031-4.922 2.566l2.191 1.582c.504-.855 1.407-1.652 2.754-1.652 1.512 0 2.309.984 2.309 2.473h-3.047c-2.625 0-4.664.843-4.664 3.386 0 2.45 1.852 3.832 4.254 3.832zm.41-2.414c-1.113 0-1.734-.55-1.734-1.324 0-.738.597-1.418 1.898-1.418h2.883c-.047 1.465-1.418 2.742-3.047 2.742zM50.754 32h2.836v-6.41c0-2.04 1.031-2.906 2.637-2.906 1.464 0 2.238 1.113 2.238 2.648V32h2.824v-7.031c0-2.45-1.172-4.922-4.242-4.922-1.149 0-2.52.457-3.457 1.605v-1.359h-2.836V32zM71.766 15.441v6.024c-.809-1.008-2.11-1.418-3.329-1.418-3.246 0-5.027 2.86-5.027 6.094 0 3.27 1.781 6.093 5.074 6.093 1.301 0 2.59-.445 3.399-1.547L72.012 32h2.66V15.441h-2.906zm-2.59 14.204c-1.969 0-2.86-1.536-2.86-3.504 0-1.946.891-3.504 2.86-3.504 1.968 0 2.836 1.535 2.836 3.504 0 1.992-.868 3.504-2.836 3.504zM78.129 32h2.86v-3.434l1.804-1.992L86.227 32h3.375l-4.864-7.172 4.383-4.535h-3.715l-4.418 4.863v-9.715h-2.86V32zM91.137 18.078h2.976v-2.637h-2.976v2.637zM91.207 32h2.836V20.293h-2.836V32zM101.602 32.234c.808 0 1.675-.187 2.109-.351v-2.59c-.387.188-1.031.422-1.629.422-.75 0-1.324-.328-1.324-1.453v-5.578h2.953v-2.391h-2.953v-4.945l-2.79 2.039v2.906h-1.933v2.39h1.887v6.083c0 2.132 1.371 3.468 3.68 3.468zM106.934 32h2.871v-3.094h-2.871V32z" fill="#335EEA"/><path fill-rule="evenodd" clip-rule="evenodd" d="M45.34 32l-.188-1.676a5.65 5.65 0 01-.262.352c-.958 1.186-2.106 1.558-3.382 1.558-2.403 0-4.254-1.382-4.254-3.832 0-2.543 2.039-3.386 4.664-3.386h3.047c0-.103-.004-.203-.012-.3-.101-1.32-.89-2.173-2.297-2.173-1.213 0-2.066.646-2.591 1.4a3.879 3.879 0 00-.163.252l-2.191-1.582.181-.239c1.103-1.402 2.554-2.327 4.74-2.327 3.188 0 5.063 1.992 5.063 4.851V32H45.34zm-.687-7.284h-2.735c-1.335 0-2.569.212-3.477.786-.93.587-1.487 1.533-1.487 2.9 0 1.307.497 2.35 1.331 3.063.829.708 1.966 1.07 3.223 1.07.729 0 1.435-.117 2.097-.436.477-.23.922-.56 1.33-1.014l.136 1.215h2.924v-7.402c0-1.496-.492-2.79-1.425-3.711-.933-.92-2.28-1.44-3.937-1.44-2.423 0-3.994 1.093-5.164 2.689l-.179.244 2.704 1.951.167-.283c.467-.794 1.284-1.505 2.495-1.505.688 0 1.177.221 1.498.579.277.308.452.744.499 1.294zm-3.833 4.497c.227.18.587.307 1.098.307 1.364 0 2.506-.984 2.714-2.142h-2.55c-.6 0-1 .157-1.244.362a.965.965 0 00-.355.756c0 .3.117.543.337.718zm1.262-2.135c-1.3 0-1.898.68-1.898 1.418 0 .774.62 1.324 1.734 1.324 1.517 0 2.81-1.107 3.019-2.442.015-.099.025-.199.028-.3h-2.883zm8.372 5.222V19.993h3.436v.92c.95-.828 2.138-1.166 3.157-1.166 1.628 0 2.78.661 3.514 1.665.726.991 1.028 2.29 1.028 3.557V32.3h-3.424v-6.968c0-.721-.182-1.31-.504-1.712-.315-.394-.786-.636-1.434-.636-.751 0-1.321.202-1.706.597-.386.397-.631 1.037-.631 2.009v6.71h-3.436zm3.436-10.978a4.214 4.214 0 00-.3.33v-1.359h-2.836V32h2.836v-6.41c0-2.04 1.031-2.906 2.636-2.906 1.465 0 2.239 1.113 2.239 2.648V32h2.824v-7.031c0-2.45-1.172-4.922-4.242-4.922-1.031 0-2.242.368-3.157 1.275zm17.576-6.18h3.506V32.3H71.74l-.089-.901c-.865.808-2.026 1.135-3.167 1.135-1.742 0-3.098-.751-4.01-1.938-.905-1.178-1.364-2.77-1.364-4.455 0-1.669.459-3.26 1.358-4.442.904-1.19 2.247-1.952 3.97-1.952 1.042 0 2.168.286 3.028.99v-5.596zm.3 6.323a3.323 3.323 0 00-.3-.327c-.81-.77-1.951-1.091-3.028-1.091-3.247 0-5.028 2.86-5.028 6.094 0 3.27 1.781 6.093 5.074 6.093 1.165 0 2.32-.357 3.13-1.222.094-.1.184-.209.269-.325L72.012 32h2.66V15.441h-2.906v6.024zm-4.518 6.987c.409.549 1.032.892 1.928.892.897 0 1.513-.338 1.915-.883.411-.557.62-1.362.62-2.32 0-.947-.209-1.752-.62-2.313-.403-.548-1.02-.891-1.915-.891s-1.518.348-1.927.9c-.418.565-.633 1.371-.633 2.304 0 .944.215 1.75.632 2.31zm10.58 3.848V15.141h3.46v9.239l3.985-4.387h4.555l-4.705 4.868 5.044 7.439h-4.106l-3.31-5.232-1.463 1.614V32.3h-3.46zm3.16-3.734l1.805-1.992L86.226 32h3.376l-4.864-7.172 4.383-4.535h-3.715l-4.418 4.863v-9.715h-2.86V32h2.86v-3.434zm9.849-10.188v-3.237h3.576v3.237h-3.576zm.07 13.922V19.993h3.436V32.3h-3.436zm3.206-14.222h-2.976v-2.637h2.976v2.637zM94.043 32h-2.836V20.293h2.836V32zm9.968.09l-.194.073c-.468.178-1.371.371-2.215.371-1.212 0-2.213-.35-2.913-1.017-.701-.667-1.067-1.619-1.067-2.751v-5.782h-1.887v-2.991h1.934v-2.759l3.389-2.477v5.236h2.953v2.99h-2.953v5.279c0 .515.131.784.286.93.159.148.4.223.738.223.532 0 1.129-.213 1.498-.392l.431-.209v3.276zm-3.253-11.797h2.953v2.39h-2.953v5.579c0 1.125.574 1.453 1.324 1.453.462 0 .952-.14 1.329-.29.111-.044.212-.09.3-.132v2.59c-.434.164-1.301.351-2.109.351-2.31 0-3.68-1.336-3.68-3.468v-6.082h-1.887v-2.391h1.934v-2.906l2.789-2.04v4.946zm5.876 12.007v-3.694h3.471V32.3h-3.471zm3.171-.3h-2.871v-3.094h2.871V32zm-43.489-5.86c0 1.97.891 3.505 2.86 3.505 1.968 0 2.836-1.512 2.836-3.504 0-1.97-.868-3.504-2.836-3.504-1.969 0-2.86 1.558-2.86 3.504z" fill="#335EEA"/><path d="M6.718 16.433c-1.46 6.621 1.154 13.456 5.259 16.552 6.615 4.987 16.02 3.668 21.008-2.947a15.04 15.04 0 001.779-3.042l-10.698 1.5A1.875 1.875 0 0121.95 26.9L20.007 14.57l-13.29 1.864z" fill="#335EEA"/><path d="M6.718 16.433l15.354-2.154a1.875 1.875 0 012.117 1.597l1.213 8.646 10.468-1.468c.712-5.207-1.338-10.635-5.832-14.024-6.615-4.987-16.02-3.668-21.008 2.947a14.978 14.978 0 00-2.312 4.456z" fill="#335EEA"/></svg>