<svg width="16" height="16" fill="none" xmlns="http://www.w3.org/2000/svg"><path fill-rule="evenodd" clip-rule="evenodd" d="M16 6.2c0 .182-.125.353-.25.484l-3.49 3.57.826 5.04c.01.07.01.131.01.202 0 .262-.115.504-.394.504a.755.755 0 01-.385-.121L8 13.499l-4.317 2.38a.784.784 0 01-.385.121c-.279 0-.404-.242-.404-.504 0-.07.01-.131.02-.202l.826-5.04-3.5-3.57C.125 6.554 0 6.382 0 6.2c0-.302.298-.423.538-.463L5.365 5 7.53.413C7.615.222 7.779 0 8 0c.221 0 .385.222.471.413l2.164 4.588 4.826.736c.231.04.539.16.539.463z" fill="#B4C2D3"/></svg>