<svg width="21" height="18" fill="none" xmlns="http://www.w3.org/2000/svg"><path d="M20.962 2.567c-.77.348-1.6.583-2.47.692a4.316 4.316 0 001.88-2.394 8.63 8.63 0 01-2.73 1.061A4.301 4.301 0 0014.49.583C11.708.6 9.679 3.206 10.322 5.896a12.23 12.23 0 01-8.904-4.45A4.314 4.314 0 002.783 7.19a4.29 4.29 0 01-1.954-.528c-.036 1.996 1.405 3.855 3.48 4.26-.606.167-1.27.21-1.946.084a4.312 4.312 0 004.042 2.969 8.662 8.662 0 01-6.369 1.82 12.196 12.196 0 006.616 1.899c7.999-.045 12.48-6.826 12.173-12.884a8.772 8.772 0 002.137-2.243z" fill="#ABBCD5"/></svg>